<svg id="Layer_1" data-name="Layer 1" xmlns="http://www.w3.org/2000/svg" viewBox="0 0 768.47 539.95"><title>dD logo svg</title><polygon points="768.47 539.95 0 539.95 0 0 768.47 0 768.47 214.26 711.34 214.26 711.34 57.15 57.15 57.15 57.15 482.79 711.34 482.79 711.34 431.38 768.47 431.38 768.47 539.95"/><rect x="711.34" y="268.55" width="57.14" height="108.55"/><path d="M536.68,495q-31.56,0-52.76-22.2T462.71,409.2q0-41.42,22-63.55t59.11-22.1q19.15,0,43.6,7.7V284.91a9.06,9.06,0,0,1,2.65-6.73,8.92,8.92,0,0,1,6.57-2.62h33.68a9,9,0,0,1,9.35,9.35V482.8a8.76,8.76,0,0,1-2.67,6.54,9,9,0,0,1-6.68,2.66h-29a8.72,8.72,0,0,1-6.61-2.66,9,9,0,0,1-2.56-6.54v-4.69Q568.21,495,536.68,495ZM525.19,371.78q-8.61,11.7-8.6,37.5t8.15,37.6q8.19,11.75,24.55,11.74t38.13-13.57V366.13c-13-4.05-23.92-6-32.81-6C540.76,360.11,531,364,525.19,371.78Z" transform="translate(-298.76 -114.03)"/><path d="M679.77,478.11V290.19A14.24,14.24,0,0,1,684,279.76a13.9,13.9,0,0,1,10.1-4.2h84.37q65.55,0,95.35,26.18t29.8,82.12q0,55.93-29.8,82T778.45,492H694.08a14.23,14.23,0,0,1-10.1-4A13.06,13.06,0,0,1,679.77,478.11Zm56.91-28.82h40.11q40.65,0,55.26-14.79t14.64-50.64q0-35.83-14.64-50.73t-55.26-14.86H736.68Z" transform="translate(-298.76 -114.03)"/></svg>